<svg width="13" height="14" viewBox="0 0 13 14" fill="none" xmlns="http://www.w3.org/2000/svg">
<path d="M0.840596 7.83338L10.1489 7.83338L6.08226 11.9C5.75726 12.225 5.75726 12.7584 6.08226 13.0834C6.40726 13.4084 6.93226 13.4084 7.25726 13.0834L12.7489 7.59171C13.0739 7.26671 13.0739 6.74171 12.7489 6.41671L7.2656 0.916712C7.1099 0.760668 6.89853 0.672974 6.6781 0.672974C6.45767 0.672974 6.24629 0.760668 6.0906 0.916712C5.7656 1.24171 5.7656 1.76671 6.0906 2.09171L10.1489 6.16671L0.840596 6.16671C0.382263 6.16671 0.00726318 6.54171 0.00726318 7.00004C0.00726318 7.45838 0.382263 7.83338 0.840596 7.83338Z" fill="#FFF6E4"/>
</svg>
