<svg width="17" height="18" viewBox="0 0 17 18" fill="none" xmlns="http://www.w3.org/2000/svg">
<path d="M12.1498 11H11.3819L11.1098 10.73C12.0623 9.59 12.6358 8.11 12.6358 6.5C12.6358 2.91 9.80732 0 6.3179 0C2.82847 0 0 2.91 0 6.5C0 10.09 2.82847 13 6.3179 13C7.88279 13 9.32133 12.41 10.4294 11.43L10.6918 11.71V12.5L15.5517 17.49L17 16L12.1498 11ZM6.3179 11C3.89766 11 1.94397 8.99 1.94397 6.5C1.94397 4.01 3.89766 2 6.3179 2C8.73814 2 10.6918 4.01 10.6918 6.5C10.6918 8.99 8.73814 11 6.3179 11Z" fill="#606770" fill-opacity="0.87"/>
</svg>
